<?xml version="1.0" encoding="utf-8"?>
<!-- Generator: Adobe Illustrator 25.4.8, SVG Export Plug-In . SVG Version: 6.00 Build 0)  -->
<svg version="1.1" id="Layer_1" xmlns="http://www.w3.org/2000/svg" xmlns:xlink="http://www.w3.org/1999/xlink" x="0px" y="0px"
	 viewBox="0 0 1080 1080" style="enable-background:new 0 0 1080 1080;" xml:space="preserve">
<style type="text/css">
	.st0{fill:#4C86A0;}
	.st1{fill:#002D5D;}
	.st2{fill:#636569;}
</style>
<g>
	<g>
		<g>
			<path class="st0" d="M489.2,527.4c-0.3-0.3-34.5-25.1-35.7-26c-0.1-0.1-0.2-0.1-0.3-0.1c-0.2,0-0.3,0.1-0.5,0.2
				c-0.1,0.1-0.3,0.4-0.2,0.7c0.4,1.4,6.9,21.1,6.9,21.3l0,0.1c0.8,2.8,1.6,3.6,2.2,4.1c0.5,0.4,1.5,0.9,4.1,0.8l23,0
				c0.5,0,0.5-0.2,0.6-0.3C489.6,527.7,489.3,527.4,489.2,527.4L489.2,527.4z"/>
			<path class="st0" d="M442.8,538.3c-1.3-4.3-17.1-52.7-17.6-54.4l0-0.1c-0.6-1.8,0.3-3.7,2-4.4c0.2-0.1,0.7-0.2,9.1-3l5.7-1.8
				c6.4-2.1,10.5,0.8,13.7,3.2l0.1,0l10.2,7.4c19.1,13.9,58.9,42.8,60.9,44.2c0.4,0.3,0.9,0.3,1.4,0c0.3-0.1,0.6-0.4,0.6-1.2
				c0-3.8,0-74.8,0-93.1c-11.6,3.8-44.5,14.4-52.9,17.2c0.6,0.4,1.3,1,2.2,1.6c3.2,2.3,7.6,5.5,8.3,6c0.1,0.1,0.3,0.2,0.4,0.1
				c0.9-0.3,26.7-8.7,27-8.8l4.1-1.3l0,59.6l-4.9-3.6c-0.5-0.4-52.3-38-56.1-40.8c-2.6-1.9-5.2-3.2-8.5-3.2c-1.4,0-3,0.3-4.7,0.8
				c-7.8,2.5-27.7,8.9-30.9,10c-1.6,0.5-2.2,1.7-1.7,3.2c0.3,0.9,2.8,8.6,6.1,18.7c6.5,19.9,15.3,47.1,16.5,50.6
				c3.4,10.5,8.7,14.4,19.7,14.4c0,0,0,0,0,0c2.9,0,66.9,0,75.5,0v-10.8l-70.2,0C448.1,548.8,445.2,545.6,442.8,538.3z"/>
			<path class="st0" d="M431.1,482C431.1,481.9,431.1,481.9,431.1,482L431.1,482C431.1,481.9,431.1,481.9,431.1,482z"/>
			<path class="st0" d="M516.8,305.8L516.8,305.8c0,0,42.7,0,44.2,0c0.2,0,0.5-0.2,0.6-0.5c0-0.1,0-0.4-0.3-0.6
				c-0.9-0.7-12.3-8.9-18.1-13.2c-2.4-1.8-3.4-2.1-4.2-2.1c-0.6,0-1.7,0.2-3.8,1.8l-18.6,13.5c-0.4,0.3-0.3,0.5-0.3,0.6
				C516.3,305.8,516.8,305.8,516.8,305.8z"/>
			<path class="st0" d="M558.7,358.7c-0.2,0-0.3,0.1-0.4,0.2c-0.5,0.7-16,22.1-16.7,23l-2.5,3.5L504,337.1l6.1,0
				c0.6,0,64.6,0,69.4,0c4.7,0,8.5-1,12.1-5.8c4.8-6.5,17.2-23.6,19.2-26.3c0.9-1.3,0.7-2.7-0.5-3.6c-2.8-2.1-54.5-39.5-59-42.8
				c-8.9-6.5-15.6-6.5-24.4-0.1c-2.4,1.7-54.1,39.4-61.1,44.4l6.4,8.8l56.8-41.3c8.6-6.2,12.9-5.2,19.1-0.7c4,3,45.7,33.3,46.3,33.7
				c1.5,1.1,2,3.2,0.9,4.8c-0.2,0.2-1.4,2-8.8,12.1l-0.4,0.5c-4,5.5-8.9,5.5-12.9,5.5H573c-5.5,0-84.8,0-87.8,0
				c-0.4,0-0.9,0.3-1.1,0.8c-0.1,0.3-0.3,0.7,0.2,1.4c2.2,3,44,60.5,54.8,75.3c7.2-9.9,27.5-37.8,32.7-45
				C563.8,358.7,559.4,358.7,558.7,358.7z"/>
			<path class="st0" d="M590.5,308.3c0,0,0.1,0.1,0.1,0.1l0,0C590.6,308.4,590.6,308.3,590.5,308.3z"/>
			<path class="st0" d="M435.8,363.8c0,0-0.1,0-0.3,0c-0.1,0-0.3,0-0.4,0.1c-1.2,0.8-18,13-18.2,13.2c-2.5,1.7-3,2.7-3.3,3.4
				c-0.2,0.6-0.3,1.7,0.5,4.2l7.1,21.9c0.1,0.4,0.4,0.4,0.5,0.4c0.5,0,0.7-0.4,0.7-0.5c0.2-0.5,13.2-40.6,13.7-42
				C436.3,364.4,436.1,364,435.8,363.8z"/>
			<path class="st0" d="M392.6,384.2c-3.2-10.2-1.1-13.7,5.2-18.4c2.6-1.9,25.6-18.6,38-27.6c6.5-4.7,8-5.8,8.3-6
				c0.7-0.5,1.6-0.8,2.4-0.7c0.9,0.1,1.8,0.5,2.4,1.3c0.2,0.2,0.8,1.1,5.5,7.5l3.7,5c4,5.5,2.5,10.2,1.2,14l0,0.1
				c-1.7,5.1-26.2,80.7-27.1,83.5c-0.1,0.4,0,1,0.4,1.3c0.2,0.2,0.6,0.5,1.4,0.2c3.6-1.2,71.1-23.2,88.5-28.8
				c-11.1-15.2-28-38.6-32.7-45c-1.2,3.8-3.7,11.4-4,12.4c0,0.2-0.1,0.3,0,0.4c0.5,0.7,16.5,22.7,16.7,23l2.5,3.5l-56.7,18.5
				l1.9-5.8c0.2-0.6,20-61.5,21.4-66c1.4-4.5,1.7-8.4-1.8-13.3c-4.7-6.6-17.1-23.6-19.1-26.3c-0.6-0.8-1.3-1.2-2-1.2
				c-0.5,0-1,0.2-1.6,0.6c-0.6,0.4-4.7,3.4-10.6,7.7c-15.7,11.5-45.1,32.8-48.4,35.2c-9,6.5-11,12.8-7.6,23.2
				c0.9,2.8,20.7,63.7,23.4,71.8l10.3-3.3L392.6,384.2z"/>
			<path class="st0" d="M624.8,501.2L624.8,501.2c-0.3,0.3-34.5,25.1-35.7,25.9c-0.2,0.2-0.3,0.5-0.2,0.8c0,0.1,0.3,0.4,0.6,0.4
				c1.5,0,22.2,0,22.4,0c3,0.1,4-0.4,4.7-0.8c0.5-0.4,1.3-1.2,2-3.7l7.1-21.9c0.1-0.4,0-0.5-0.1-0.6
				C625.1,501,624.8,501.2,624.8,501.2z"/>
			<path class="st0" d="M635.8,537c-3.4,10.1-7.4,11.8-15,11.8c-4.4,0-55.3,0-57.2,0c-0.8,0-1.7-0.3-2.3-0.8
				c-0.7-0.6-1.2-1.5-1.2-2.4l0-0.1c0-0.2,0-1.6,0-10.8l0-4.7c0-6.8,4-9.7,7.2-12l0.1-0.1c1-0.7,8.1-5.9,17.5-12.7
				c20.6-15,51.8-37.7,53.5-38.9c0.3-0.2,0.5-0.8,0.5-1.3c0-0.3-0.2-0.7-1-1c-3.6-1.2-71.2-23.1-88.6-28.7c0,18.8,0,47.7,0,55.6
				c3.2-2.3,9.7-7,10.5-7.7c0.1-0.1,0.2-0.2,0.2-0.4c0-0.9,0-28.4,0-28.4l0-4.3l56.7,18.4l-4.9,3.6c-0.5,0.4-52.3,37.9-56.1,40.8
				c-3.8,2.8-6.3,5.8-6.3,11.8c0,8-0.1,28.9,0,32.5c0,1.6,1,2.6,2.6,2.6l6.6,0c16.9,0,61.6,0,66.2,0c0,0,0.1,0,0.1,0
				c11,0,16.3-3.9,19.7-14.3c0.9-2.8,20.5-63.3,23.3-71.8l-10.3-3.3L635.8,537z"/>
			<path class="st0" d="M656.1,406.7c0.1,0,0.4-0.1,0.5-0.4l0-0.1c0.4-1.1,4.7-14.4,6.9-21.3c1-2.8,0.9-3.9,0.7-4.7
				c-0.2-0.6-0.7-1.6-2.9-3.1l-18.6-13.5c-0.4-0.3-0.5-0.1-0.6-0.1c-0.4,0.3-0.3,0.8-0.3,0.8c0.2,0.7,13.2,40.6,13.6,42
				C655.5,406.5,655.8,406.7,656.1,406.7z"/>
			<path class="st0" d="M689.9,359.2c-2.3-1.7-54.1-39.3-61.1-44.4l-6.4,8.8l56.8,41.2c8.6,6.4,8.9,10.5,6.6,18
				c-0.9,2.7-7.8,23.8-12.8,39.2c-3.8,11.8-4.7,14.5-4.9,15.2c-0.2,0.8-0.8,1.6-1.6,2c-0.8,0.5-1.8,0.6-2.7,0.4
				c-0.2,0-0.5-0.2-7.6-2.4c-2.5-0.8-5.2-1.7-7.2-2.3c-6.4-2.1-8-6.8-9.2-10.6l0-0.1c-2.1-6.5-26.2-80.7-27.2-83.5
				c-0.1-0.4-0.6-0.8-1.1-0.8c-0.3,0-0.8,0-1.2,0.6c-2.2,3-44,60.5-54.7,75.4c17.9,5.8,45.4,14.7,52.9,17.2
				c-0.1-0.3-0.2-0.7-0.4-1.1c-1.3-3.9-3.4-10.4-3.7-11.3c0-0.1-0.1-0.3-0.3-0.3c-0.8-0.3-25.9-8.4-27-8.8l-4.1-1.3l35-48.3l1.9,5.8
				c0.2,0.6,19.9,61.5,21.4,66c1.5,4.4,3.6,7.8,9.3,9.7c7.6,2.5,27.6,9,30.9,10.1c1.6,0.5,2.8-0.1,3.3-1.6c1-3,20.8-64.2,22.5-69.3
				C700.8,371.9,698.8,365.6,689.9,359.2z"/>
		</g>
		<g>
			<g>
				<path class="st0" d="M392.2,552.8h-2.9v-16.6c1-0.2,2.8-0.3,4.1-0.3c4.4,0,6.7,1.9,6.7,5.4c0,2.4-1.4,4.2-3.3,4.9l5,6.5h-3.4
					l-4.4-5.9h-1.9V552.8z M392.2,544.5h1.4c2.3,0,3.7-1,3.7-3.1c0-1.9-1.3-3-3.8-3c-0.3,0-1,0-1.3,0.1V544.5z"/>
			</g>
			<path class="st0" d="M394.1,559.6c-8.3,0-15-6.7-15-15c0-8.3,6.7-15,15-15c8.3,0,15,6.7,15,15
				C409.1,552.9,402.3,559.6,394.1,559.6z M394.1,532.2c-6.9,0-12.5,5.6-12.5,12.5c0,6.9,5.6,12.5,12.5,12.5
				c6.9,0,12.5-5.6,12.5-12.5C406.6,537.8,401,532.2,394.1,532.2z"/>
		</g>
		<g>
			<path class="st1" d="M218.3,686.4v7.6c0,0.9,0.8,0.9,0.8,0.9h52.6h0.7c11.2,0,20.3-9.1,20.3-20.3l0-69c0,0,0.2-1.4-1.2-0.9
				l-9.3,3.4c0,0-0.8,0.3-0.8,1.1v65.5c0,5.9-4.8,10.6-10.6,10.6h-51.5C219.3,685.5,218.3,685.4,218.3,686.4z"/>
			<path class="st1" d="M564.3,690.5v-85.5c0,0,0-0.4-0.4-0.4l-13.1,0c0,0-0.5,0-0.7,0.4l-49.5,75.6l-48.3-75.3c0,0-0.4-0.6-1.2-0.6
				l-13.2,0c0,0-0.9,0-0.9,0.8v85v3.8c0,0.7,0.7,0.7,0.7,0.7h10.2c0.5,0,0.5-0.6,0.5-0.6v-3.8v-68.7l47,72.3c0,0,0.4,0.8,1.4,0.8
				h7.9c0,0,0.9,0,1.3-0.8l46.8-71.8v68.2v1.1v2.6c0,0.7,0.7,0.7,0.7,0.7h10.2c0.5,0,0.5-0.6,0.5-0.6L564.3,690.5L564.3,690.5z"/>
			<path class="st1" d="M424.6,694.1l-57.7-88.8l-0.1-0.2c0,0-0.3-0.4-0.8-0.4h-8.5c0,0-0.5,0-0.8,0.5l-57.8,88.6c0,0-1,1.3,0.6,1.3
				h11.5c1.3,0,1.8-0.9,1.8-0.9l49.2-75.1l22.8,35.6h-32.8c-0.8,0-1.2,0.5-1.5,1.1l-4.4,7.3c-0.7,1.2,0.5,1.1,1.1,1.1h43.6
				l19.4,30.3c0,0,0.4,0.7,1.3,0.7H424C425.2,695,424.6,694.1,424.6,694.1z"/>
			<path class="st1" d="M773.9,685.5h-70.1c-5.9,0-10.6-4.8-10.6-10.6v-24.8h80.9c0,0,0.8,0,0.8-0.9v-7.6c0-1-1-0.9-1-0.9h-80.7
				v-26.5h80.9c0,0,0.8,0,0.8-0.9v-7.6c0-1-1-0.9-1-0.9h-91.4l0,0c-0.7,0-0.6,0.7-0.6,0.7l0,69.4c0,11.2,9.1,20.3,20.3,20.3h72
				c0,0,0.8,0,0.8-0.9v-7.6C775,685.5,773.9,685.5,773.9,685.5z"/>
			<path class="st1" d="M668.7,685.5h-70.1c-5.9,0-10.6-4.8-10.6-10.6v-24.8h80.9c0,0,0.8,0,0.8-0.9v-7.6c0-1-1-0.9-1-0.9H588v-26.5
				h80.9c0,0,0.8,0,0.8-0.9v-7.6c0-1-1-0.9-1-0.9h-91.4l0,0c-0.7,0-0.6,0.7-0.6,0.7l0,69.4c0,11.2,9.1,20.3,20.3,20.3h72
				c0,0,0.8,0,0.8-0.9v-7.6C669.7,685.5,668.7,685.5,668.7,685.5z"/>
		</g>
	</g>
	<path class="st1" d="M861.7,686.3v7.6c0,0.9-0.8,0.9-0.8,0.9h-52.6h-0.7c-11.2,0-20.3-9.1-20.3-20.3l0-69c0,0-0.2-1.4,1.2-0.9
		l9.3,3.4c0,0,0.8,0.3,0.8,1.1v65.5c0,5.9,4.8,10.6,10.6,10.6h51.5C860.7,685.4,861.7,685.3,861.7,686.3z"/>
</g>
<g>
	<path class="st2" d="M244.8,779.9L231.4,736l-7.5,43.9H219l8.7-48.8h6.8l13.3,43.6l13.3-43.6h6.8l8.7,48.8h-5.1l-7.5-43.9
		l-13.4,43.9H244.8z"/>
	<path class="st2" d="M379.8,730.3c14,0,25.2,10.3,25.2,25.2c0,14.9-11.2,25.2-25.2,25.2s-25.2-10.3-25.2-25.2
		C354.6,740.6,365.8,730.3,379.8,730.3z M379.8,734.9c-11,0-20,8-20,20.6c0,12.6,9,20.6,20,20.6s20-8,20-20.6
		C399.8,742.9,390.8,734.9,379.8,734.9z"/>
	<path class="st2" d="M500.3,779.9h-5.1v-44.3h-16.1v-4.4h37.3v4.4h-16.1V779.9z"/>
	<path class="st2" d="M615.7,730.3c14,0,25.2,10.3,25.2,25.2c0,14.9-11.2,25.2-25.2,25.2s-25.2-10.3-25.2-25.2
		C590.5,740.6,601.7,730.3,615.7,730.3z M615.7,734.9c-11,0-20,8-20,20.6c0,12.6,9,20.6,20,20.6s20-8,20-20.6
		C635.8,742.9,626.7,734.9,615.7,734.9z"/>
	<path class="st2" d="M728.4,779.9h-5.1V731c2.2-0.3,6.4-0.7,9.3-0.7c13.1,0,19,6.1,19,15.1c0,7.2-4.1,12.6-10.6,14.4l16.2,20h-6.3
		L735.7,761h-7.3V779.9z M728.4,756.8h5.1c8,0,12.8-3.8,12.8-11.2c0-6.2-3.9-10.8-13.8-10.8c-1,0-3,0.1-4.1,0.2V756.8z"/>
	<path class="st2" d="M833.4,771.4c3.9,3.1,7.5,5,12.4,5c5.8,0,10.8-2.5,10.8-8.9c0-5.8-4.4-8-10.2-10.2
		c-8.7-3.2-13.4-6.1-13.4-14.4c0-8.3,6.9-12.6,14.2-12.6c4.8,0,8.7,1.5,11.7,3.9v5.3c-3.9-3.1-7.2-4.8-11.7-4.8
		c-5.5,0-9.3,3.3-9.3,8.3c0,4.7,2.8,7,9.9,9.4c9,3.1,13.8,6.5,13.8,15c0,8.9-7.1,13.3-15.8,13.3c-5.3,0-9.4-1.5-12.4-3.8V771.4z"/>
</g>
</svg>
